<?xml version="1.0" encoding="UTF-8" standalone="no"?>
<svg
   id="svg861"
   version="1.1"
   viewBox="0 0 48.166222 34.467216"
   height="34.467216mm"
   width="48.166222mm"
   sodipodi:docname="logo_biale_bez_tla.svg"
   inkscape:version="1.1.2 (0a00cf5339, 2022-02-04)"
   xmlns:inkscape="http://www.inkscape.org/namespaces/inkscape"
   xmlns:sodipodi="http://sodipodi.sourceforge.net/DTD/sodipodi-0.dtd"
   xmlns="http://www.w3.org/2000/svg"
   xmlns:svg="http://www.w3.org/2000/svg"
   xmlns:rdf="http://www.w3.org/1999/02/22-rdf-syntax-ns#"
   xmlns:cc="http://creativecommons.org/ns#"
   xmlns:dc="http://purl.org/dc/elements/1.1/">
  <sodipodi:namedview
     id="namedview39"
     pagecolor="#ffffff"
     bordercolor="#666666"
     borderopacity="1.0"
     inkscape:pageshadow="2"
     inkscape:pageopacity="0.0"
     inkscape:pagecheckerboard="0"
     inkscape:document-units="mm"
     showgrid="false"
     inkscape:zoom="6.686124"
     inkscape:cx="91.084162"
     inkscape:cy="65.060116"
     inkscape:window-width="2560"
     inkscape:window-height="1368"
     inkscape:window-x="0"
     inkscape:window-y="0"
     inkscape:window-maximized="1"
     inkscape:current-layer="svg861" />
  <defs
     id="defs855" />
  <metadata
     id="metadata858">
    <rdf:RDF>
      <cc:Work
         rdf:about="">
        <dc:format>image/svg+xml</dc:format>
        <dc:type
           rdf:resource="http://purl.org/dc/dcmitype/StillImage" />
        <dc:title />
      </cc:Work>
    </rdf:RDF>
  </metadata>
  <g
     transform="translate(-104.69847,-233.85744)"
     id="g889">
    <path
       style="fill:none;stroke:#ffffff;stroke-width:0.199;stroke-linecap:round;stroke-linejoin:miter;stroke-miterlimit:4;stroke-dasharray:none;stroke-opacity:1"
       d="m 109.88673,254.1757 9.46465,-13.51074 8.85404,13.43264 v 0"
       id="path59-3" />
    <path
       style="fill:none;stroke:#ffffff;stroke-width:0.199;stroke-linecap:round;stroke-linejoin:miter;stroke-miterlimit:4;stroke-dasharray:none;stroke-opacity:1"
       d="m 123.47463,244.34929 c 0.40709,-0.85906 3.48434,-5.40801 3.48434,-5.40801 l 3.76088,6.71632 4.64222,-6.92161 6.52423,9.06928"
       id="path61-6" />
    <path
       style="fill:none;stroke:#ffffff;stroke-width:0.199;stroke-linecap:round;stroke-linejoin:miter;stroke-miterlimit:4;stroke-dasharray:none;stroke-opacity:1"
       d="m 128.20542,254.0976 5.82694,-8.33348 5.97297,8.04667 6.10622,-7.57539"
       id="path63-7" />
    <path
       style="fill:none;stroke:#ffffff;stroke-width:0.199;stroke-linecap:round;stroke-linejoin:miter;stroke-miterlimit:4;stroke-dasharray:none;stroke-opacity:1"
       d="m 121.93193,247.20159 -4.67921,7.28941 -2.68018,-2.89249 -4.68581,2.57719"
       id="path65-5" />
    <path
       style="fill:none;stroke:#ffffff;stroke-width:0.165;stroke-linecap:butt;stroke-linejoin:miter;stroke-miterlimit:4;stroke-dasharray:none;stroke-opacity:1"
       d="m 105.69847,256.91017 h 46.16622"
       id="path872-3" />
    <g
       id="flowRoot910-5"
       style="font-style:normal;font-variant:normal;font-weight:normal;font-stretch:normal;font-size:18.6667px;line-height:1.1;font-family:Lato;-inkscape-font-specification:Lato;text-align:center;letter-spacing:0px;word-spacing:0px;text-anchor:middle;fill:#ffffff;fill-opacity:1;stroke:none"
       transform="matrix(0.26458333,0,0,0.26458333,17.342054,48.418301)"
       aria-label="WZMOCNIENIE Aleksandra Magda">
      <path
         id="path844"
         style="font-style:normal;font-variant:normal;font-weight:500;font-stretch:normal;font-size:24px;line-height:1.1;font-family:Poppins;-inkscape-font-specification:'Poppins Medium';letter-spacing:0.67px;word-spacing:0.01px;fill:#ffffff"
         d="m 358.43866,796.52 -4.944,16.68 h -3.096 l -3.504,-12.624 -3.72,12.624 -3.072,0.024 -4.728,-16.704 h 2.904 l 3.456,13.584 3.744,-13.584 h 3.072 l 3.48,13.512 3.48,-13.512 z" />
      <path
         id="path846"
         style="font-style:normal;font-variant:normal;font-weight:500;font-stretch:normal;font-size:24px;line-height:1.1;font-family:Poppins;-inkscape-font-specification:'Poppins Medium';letter-spacing:0.67px;word-spacing:0.01px;fill:#ffffff"
         d="m 364.00463,810.824 h 7.752 v 2.376 h -10.992 v -2.136 l 7.728,-12.168 h -7.728 v -2.376 h 10.992 v 2.136 z" />
      <path
         id="path848"
         style="font-style:normal;font-variant:normal;font-weight:500;font-stretch:normal;font-size:24px;line-height:1.1;font-family:Poppins;-inkscape-font-specification:'Poppins Medium';letter-spacing:0.67px;word-spacing:0.01px;fill:#ffffff"
         d="m 392.9946,796.52 v 16.68 h -2.736 v -11.424 l -5.088,11.424 h -1.896 l -5.112,-11.424 V 813.2 h -2.736 v -16.68 h 2.952 l 5.856,13.08 5.832,-13.08 z" />
      <path
         id="path850"
         style="font-style:normal;font-variant:normal;font-weight:500;font-stretch:normal;font-size:24px;line-height:1.1;font-family:Poppins;-inkscape-font-specification:'Poppins Medium';letter-spacing:0.67px;word-spacing:0.01px;fill:#ffffff"
         d="m 404.87259,813.368 q -2.328,0 -4.296,-1.08 -1.944,-1.104 -3.096,-3.048 -1.128,-1.968 -1.128,-4.416 0,-2.448 1.128,-4.392 1.152,-1.944 3.096,-3.024 1.968,-1.104 4.296,-1.104 2.352,0 4.296,1.104 1.968,1.08 3.096,3.024 1.128,1.944 1.128,4.392 0,2.448 -1.128,4.416 -1.128,1.944 -3.096,3.048 -1.944,1.08 -4.296,1.08 z m 0,-2.376 q 1.656,0 2.952,-0.744 1.296,-0.768 2.016,-2.16 0.744,-1.416 0.744,-3.264 0,-1.848 -0.744,-3.24 -0.72,-1.392 -2.016,-2.136 -1.296,-0.744 -2.952,-0.744 -1.656,0 -2.952,0.744 -1.296,0.744 -2.04,2.136 -0.72,1.392 -0.72,3.24 0,1.848 0.72,3.264 0.744,1.392 2.04,2.16 1.296,0.744 2.952,0.744 z" />
      <path
         id="path852"
         style="font-style:normal;font-variant:normal;font-weight:500;font-stretch:normal;font-size:24px;line-height:1.1;font-family:Poppins;-inkscape-font-specification:'Poppins Medium';letter-spacing:0.67px;word-spacing:0.01px;fill:#ffffff"
         d="m 415.83856,804.824 q 0,-2.448 1.128,-4.392 1.152,-1.944 3.096,-3.024 1.968,-1.104 4.296,-1.104 2.664,0 4.728,1.32 2.088,1.296 3.024,3.696 h -3.288 q -0.648,-1.32 -1.8,-1.968 -1.152,-0.648 -2.664,-0.648 -1.656,0 -2.952,0.744 -1.296,0.744 -2.04,2.136 -0.72,1.392 -0.72,3.24 0,1.848 0.72,3.24 0.744,1.392 2.04,2.16 1.296,0.744 2.952,0.744 1.512,0 2.664,-0.648 1.152,-0.648 1.8,-1.968 h 3.288 q -0.936,2.4 -3.024,3.696 -2.064,1.296 -4.728,1.296 -2.352,0 -4.296,-1.08 -1.944,-1.104 -3.096,-3.048 -1.128,-1.944 -1.128,-4.392 z" />
      <path
         id="path854"
         style="font-style:normal;font-variant:normal;font-weight:500;font-stretch:normal;font-size:24px;line-height:1.1;font-family:Poppins;-inkscape-font-specification:'Poppins Medium';letter-spacing:0.67px;word-spacing:0.01px;fill:#ffffff"
         d="m 449.67653,813.2 h -2.736 l -8.232,-12.456 V 813.2 h -2.736 v -16.704 h 2.736 l 8.232,12.432 v -12.432 h 2.736 z" />
      <path
         id="path856"
         style="font-style:normal;font-variant:normal;font-weight:500;font-stretch:normal;font-size:24px;line-height:1.1;font-family:Poppins;-inkscape-font-specification:'Poppins Medium';letter-spacing:0.67px;word-spacing:0.01px;fill:#ffffff"
         d="m 456.6825,796.52 v 16.68 h -2.736 v -16.68 z" />
      <path
         id="path858"
         style="font-style:normal;font-variant:normal;font-weight:500;font-stretch:normal;font-size:24px;line-height:1.1;font-family:Poppins;-inkscape-font-specification:'Poppins Medium';letter-spacing:0.67px;word-spacing:0.01px;fill:#ffffff"
         d="m 463.6885,798.728 v 4.896 h 5.76 v 2.232 h -5.76 v 5.112 h 6.48 v 2.232 h -9.216 v -16.704 h 9.216 v 2.232 z" />
      <path
         id="path860"
         style="font-style:normal;font-variant:normal;font-weight:500;font-stretch:normal;font-size:24px;line-height:1.1;font-family:Poppins;-inkscape-font-specification:'Poppins Medium';letter-spacing:0.67px;word-spacing:0.01px;fill:#ffffff"
         d="m 487.90246,813.2 h -2.736 l -8.232,-12.456 V 813.2 h -2.736 v -16.704 h 2.736 l 8.232,12.432 v -12.432 h 2.736 z" />
      <path
         id="path862"
         style="font-style:normal;font-variant:normal;font-weight:500;font-stretch:normal;font-size:24px;line-height:1.1;font-family:Poppins;-inkscape-font-specification:'Poppins Medium';letter-spacing:0.67px;word-spacing:0.01px;fill:#ffffff"
         d="m 494.90843,796.52 v 16.68 h -2.736 v -16.68 z" />
      <path
         id="path864"
         style="font-style:normal;font-variant:normal;font-weight:500;font-stretch:normal;font-size:24px;line-height:1.1;font-family:Poppins;-inkscape-font-specification:'Poppins Medium';letter-spacing:0.67px;word-spacing:0.01px;fill:#ffffff"
         d="m 501.91442,798.728 v 4.896 h 5.76 v 2.232 h -5.76 v 5.112 h 6.48 v 2.232 h -9.216 v -16.704 h 9.216 v 2.232 z" />
    </g>
  </g>
</svg>
